<svg width="258" height="296" viewBox="0 0 258 296" fill="none" xmlns="http://www.w3.org/2000/svg">
<path d="M134 85.4053L164.272 67.168C167.449 65.2542 171.707 66.5639 173.045 69.8662L186.365 102.749C187.196 104.801 189.245 106.202 191.59 106.323L229.175 108.272C232.949 108.468 235.569 111.865 234.573 115.271L224.655 149.186C224.036 151.302 224.812 153.56 226.633 154.945L255.813 177.155C258.744 179.386 258.726 183.573 255.776 185.781L226.409 207.774C224.577 209.147 223.783 211.399 224.384 213.52L234.014 247.508C234.98 250.921 232.331 254.298 228.556 254.466L190.955 256.137C188.609 256.241 186.55 257.627 185.701 259.672L172.102 292.456C170.737 295.748 166.468 297.026 163.307 295.089L131.837 275.799C129.873 274.595 127.334 274.585 125.36 275.774L93.7274 294.832C90.5506 296.746 86.2927 295.436 84.955 292.134L71.6346 259.251C70.8035 257.199 68.7552 255.798 66.41 255.677L28.8251 253.728C25.0507 253.532 22.4307 250.135 23.4266 246.729L33.3446 212.814C33.9634 210.698 33.1878 208.44 31.3671 207.055L2.1864 184.845C-0.74408 182.614 -0.725761 178.427 2.22351 176.219L31.5907 154.226C33.4231 152.853 34.2169 150.601 33.6161 148.48L23.9862 114.492C23.0194 111.079 25.6683 107.702 29.4442 107.534L67.0448 105.863C69.3906 105.759 71.4501 104.373 72.2987 102.328L85.8973 69.5439C87.2631 66.2518 91.5319 64.974 94.6923 66.9111L123 84.2617V0H134V85.4053Z" fill="white"/>
<path d="M83.664 164L84.672 133.328H93.744L99.504 152.84H99.816L105.552 133.328H114.6L115.632 164H109.536L109.248 152.96L108.984 140.216H108.6L102.576 160.424H96.72L90.672 140.216H90.288L90.024 152.984L89.76 164H83.664ZM119.081 164L128.129 133.328H137.705L146.729 164H140.369L133.217 137.48H132.641L125.441 164H119.081ZM125.945 156.176V151.16H139.817V156.176H125.945ZM154.64 155.576L144.104 133.328H150.728L155.216 143.432L157.232 148.472H157.592L159.608 143.432L164.072 133.328H170.696L160.208 155.576H154.64ZM154.328 164V149.864H160.52V164H154.328ZM93.24 222.624C91.816 222.624 90.48 222.52 89.232 222.312C88 222.104 86.88 221.848 85.872 221.544C84.88 221.224 84.024 220.904 83.304 220.584L82.752 214.632C84 215.288 85.48 215.88 87.192 216.408C88.904 216.92 90.728 217.176 92.664 217.176C94.712 217.176 96.192 216.88 97.104 216.288C98.016 215.696 98.472 214.784 98.472 213.552V213.288C98.472 212.488 98.272 211.832 97.872 211.32C97.488 210.792 96.84 210.328 95.928 209.928C95.016 209.528 93.776 209.12 92.208 208.704C90 208.096 88.184 207.408 86.76 206.64C85.352 205.856 84.312 204.888 83.64 203.736C82.968 202.568 82.632 201.104 82.632 199.344V199.056C82.632 196.368 83.536 194.304 85.344 192.864C87.168 191.424 89.856 190.704 93.408 190.704C95.616 190.704 97.512 190.904 99.096 191.304C100.68 191.704 102.008 192.168 103.08 192.696L103.632 198.24C102.432 197.6 101.056 197.072 99.504 196.656C97.968 196.224 96.288 196.008 94.464 196.008C93.104 196.008 92.024 196.136 91.224 196.392C90.44 196.648 89.872 197.024 89.52 197.52C89.184 198.016 89.016 198.616 89.016 199.32V199.392C89.016 200.112 89.192 200.736 89.544 201.264C89.912 201.792 90.56 202.28 91.488 202.728C92.416 203.16 93.736 203.608 95.448 204.072C97.624 204.68 99.4 205.336 100.776 206.04C102.168 206.744 103.2 207.656 103.872 208.776C104.544 209.896 104.88 211.376 104.88 213.216V213.648C104.88 216.608 103.912 218.848 101.976 220.368C100.056 221.872 97.144 222.624 93.24 222.624ZM123.054 222L123.27 216.24L123.102 215.712V208.344L123.078 207.288C123.078 205.752 122.654 204.624 121.806 203.904C120.974 203.184 119.606 202.824 117.702 202.824C116.086 202.824 114.566 203.04 113.142 203.472C111.734 203.888 110.43 204.376 109.23 204.936L109.758 200.04C110.462 199.672 111.262 199.328 112.158 199.008C113.07 198.672 114.086 198.4 115.206 198.192C116.326 197.984 117.534 197.88 118.83 197.88C120.75 197.88 122.374 198.112 123.702 198.576C125.03 199.024 126.086 199.672 126.87 200.52C127.67 201.368 128.246 202.384 128.598 203.568C128.95 204.736 129.126 206.032 129.126 207.456V222H123.054ZM115.35 222.552C113.014 222.552 111.23 221.968 109.998 220.8C108.782 219.632 108.174 217.968 108.174 215.808V215.136C108.174 212.848 108.878 211.16 110.286 210.072C111.694 208.968 113.926 208.208 116.982 207.792L123.654 206.88L124.014 210.84L117.87 211.728C116.526 211.904 115.566 212.224 114.99 212.688C114.43 213.152 114.15 213.832 114.15 214.728V214.968C114.15 215.848 114.422 216.536 114.966 217.032C115.526 217.512 116.398 217.752 117.582 217.752C118.638 217.752 119.542 217.584 120.294 217.248C121.046 216.912 121.662 216.472 122.142 215.928C122.638 215.368 122.99 214.744 123.198 214.056L124.062 217.104H123.006C122.75 218.112 122.334 219.032 121.758 219.864C121.198 220.68 120.406 221.336 119.382 221.832C118.358 222.312 117.014 222.552 115.35 222.552ZM134.22 222V190.272H140.388V222H134.22ZM156.861 222.576C152.829 222.576 149.829 221.648 147.861 219.792C145.893 217.936 144.909 215.248 144.909 211.728V208.656C144.909 205.168 145.829 202.488 147.669 200.616C149.509 198.744 152.181 197.808 155.685 197.808C158.053 197.808 160.029 198.224 161.613 199.056C163.197 199.888 164.381 201.072 165.165 202.608C165.965 204.128 166.365 205.952 166.365 208.08V208.92C166.365 209.496 166.333 210.088 166.269 210.696C166.221 211.288 166.149 211.848 166.053 212.376H160.485C160.533 211.496 160.557 210.664 160.557 209.88C160.573 209.08 160.581 208.36 160.581 207.72C160.581 206.616 160.405 205.68 160.053 204.912C159.701 204.128 159.165 203.536 158.445 203.136C157.725 202.736 156.805 202.536 155.685 202.536C154.037 202.536 152.821 202.992 152.037 203.904C151.253 204.816 150.861 206.112 150.861 207.792V209.976L150.885 210.672V212.52C150.885 213.256 150.997 213.936 151.221 214.56C151.461 215.184 151.853 215.728 152.397 216.192C152.941 216.64 153.661 216.992 154.557 217.248C155.469 217.504 156.605 217.632 157.965 217.632C159.437 217.632 160.837 217.472 162.165 217.152C163.509 216.816 164.781 216.368 165.981 215.808L165.453 220.656C164.381 221.248 163.117 221.712 161.661 222.048C160.221 222.4 158.621 222.576 156.861 222.576ZM148.173 212.376V208.296H164.805V212.376H148.173Z" fill="#2B495E"/>
</svg>
